<svg id="Layer_1" data-name="Layer 1" xmlns="http://www.w3.org/2000/svg" viewBox="0 0 720 162"><defs><style>.cls-1{fill:#b2a268;}.cls-2{fill:#143156;}</style></defs><path class="cls-1" d="M75.32,23.28h0Z"/><path class="cls-1" d="M89.08,57.21V84.29H103.6V76.17h8.63c-2.39,12.38-14.71,21-30.32,21-1.07,0-2.16-.05-3.23-.13-8.65-.67-16.6-3.45-22.39-7.84-6.39-4.84-9.75-11.32-9.71-18.72A27.62,27.62,0,0,1,56.1,49.67a35.37,35.37,0,0,1,22-8.59c.52,0,1,0,1.57,0a45.43,45.43,0,0,1,28,10.26l.59.46s.1.07.55.45l.23.19h16.67V23.15h-16.9v8.47c-7.12-4.56-19.29-9.15-33.49-9.15h-.24A58.49,58.49,0,0,0,33.8,39.81C25,48.75,20.23,59.69,20.37,70.61c.16,11.73,5.81,22.67,15.93,30.79,9.68,7.77,22.8,12.23,36,12.23,1.63,0,3.28-.07,4.9-.2,13.07-1.07,24.65-4.05,32.84-8.43l0,3.61H128V76.18h5.63v37.61h-9.35V130.7H166V113.79h-9.36V76.17h22.62v8.12h14.59V57.21ZM75.32,23.28h0Z"/><path class="cls-1" d="M173,125.78h0a3.11,3.11,0,1,0,3.06,3.1A3.08,3.08,0,0,0,172.93,125.78Zm0,5.73a2.63,2.63,0,0,1,0-5.25h0a2.63,2.63,0,0,1,0,5.25Z"/><path class="cls-1" d="M173.5,129v0a.91.91,0,0,0,.36-1.56,1.87,1.87,0,0,0-1.08-.26,6.45,6.45,0,0,0-1,.08v3.46h.55v-1.49h.39a.65.65,0,0,1,.74.61,2.33,2.33,0,0,0,.24.88h.58a2.55,2.55,0,0,1-.22-.85C174,129.32,173.8,129,173.5,129Zm-.75-.22h-.4V127.6a2,2,0,0,1,.4,0c.62,0,.84.3.84.61S173.21,128.77,172.75,128.77Z"/><path class="cls-2" d="M452.88,96.38a10.79,10.79,0,0,1,8.39,3.45,12.74,12.74,0,0,1,3.15,8.92v14.51a.37.37,0,0,0,.41.41h2.83a.62.62,0,0,1,.7.69v5.39a.62.62,0,0,1-.7.69H453.29a.61.61,0,0,1-.69-.69v-5.39a.61.61,0,0,1,.69-.69h3a.37.37,0,0,0,.42-.41V110.54a8.15,8.15,0,0,0-1.59-5.28,6.38,6.38,0,0,0-9.22,0,8,8,0,0,0-1.63,5.28v12.72a.37.37,0,0,0,.42.41h3a.61.61,0,0,1,.69.69v5.39a.61.61,0,0,1-.69.69H433.12a.61.61,0,0,1-.69-.69v-5.39a.61.61,0,0,1,.69-.69h3a.37.37,0,0,0,.41-.41V104.32a.37.37,0,0,0-.41-.41h-3a.61.61,0,0,1-.69-.69V97.83a.61.61,0,0,1,.69-.69h10.43a.61.61,0,0,1,.69.69v2.42h.07Q447,96.38,452.88,96.38Z"/><path class="cls-2" d="M486.71,96.38a15.17,15.17,0,0,1,8.67,2.42,12.32,12.32,0,0,1,5,6.77,26.57,26.57,0,0,1,1.11,8.22,26.57,26.57,0,0,1-1.11,8.22,12.35,12.35,0,0,1-5,6.77,15.17,15.17,0,0,1-8.67,2.42,15.33,15.33,0,0,1-8.74-2.42,12.4,12.4,0,0,1-5-6.77,26.9,26.9,0,0,1-1.1-8.22,26.9,26.9,0,0,1,1.1-8.22,12.36,12.36,0,0,1,5-6.77A15.33,15.33,0,0,1,486.71,96.38Zm0,6.91q-4.9,0-6.28,4.35a21.44,21.44,0,0,0-.7,6.15,21.06,21.06,0,0,0,.7,6.15,6.66,6.66,0,0,0,12.5,0,21.12,21.12,0,0,0,.69-6.15,21.49,21.49,0,0,0-.69-6.15Q491.55,103.29,486.71,103.29Z"/><path class="cls-2" d="M504.44,83.46h10.43a.61.61,0,0,1,.69.69v36.48a3.27,3.27,0,0,0,.69,2.35,3,3,0,0,0,2.21.69H520a.61.61,0,0,1,.69.69V130a.61.61,0,0,1-.69.69h-3q-4.77,0-6.94-2.42t-2.18-7.32V90.64a.37.37,0,0,0-.41-.41h-3a.61.61,0,0,1-.69-.69V84.15A.61.61,0,0,1,504.44,83.46Z"/><path class="cls-2" d="M538.88,96.38a15.21,15.21,0,0,1,8.67,2.42,12.32,12.32,0,0,1,5,6.77,26.57,26.57,0,0,1,1.11,8.22,26.57,26.57,0,0,1-1.11,8.22,12.35,12.35,0,0,1-5,6.77,16.87,16.87,0,0,1-17.41,0,12.35,12.35,0,0,1-5-6.77,26.59,26.59,0,0,1-1.1-8.22,26.59,26.59,0,0,1,1.1-8.22,12.32,12.32,0,0,1,5-6.77A15.33,15.33,0,0,1,538.88,96.38Zm0,6.91q-4.9,0-6.29,4.35a21.49,21.49,0,0,0-.69,6.15,21.12,21.12,0,0,0,.69,6.15,6.67,6.67,0,0,0,12.51,0,21.12,21.12,0,0,0,.69-6.15,21.49,21.49,0,0,0-.69-6.15C544.18,104.74,542.1,103.29,538.88,103.29Z"/><path class="cls-2" d="M570.87,96.38q6.15,0,8.64,3.94h.07V97.83a.61.61,0,0,1,.69-.69H590.7a.61.61,0,0,1,.69.69v5.39a.61.61,0,0,1-.69.69h-3a.36.36,0,0,0-.41.41v24.05q0,7.24-4,11.26t-11.57,4a18.29,18.29,0,0,1-6.88-1.35,12.67,12.67,0,0,1-5.21-3.63.62.62,0,0,1,.07-1l4.07-4.08a.63.63,0,0,1,1,0,10.27,10.27,0,0,0,7.26,3.11q7.46,0,7.46-7.95v-3.11h-.07q-2.49,3.87-8.64,3.87a12,12,0,0,1-7.12-2.07,11.64,11.64,0,0,1-4.21-6,27.69,27.69,0,0,1-1.11-8.5,27.43,27.43,0,0,1,1.11-8.43Q562.17,96.39,570.87,96.38Zm2,6.91A5.64,5.64,0,0,0,567,107.5a16.91,16.91,0,0,0-.76,5.46,16.1,16.1,0,0,0,.76,5.46,6.22,6.22,0,0,0,11.82,0,16.35,16.35,0,0,0,.76-5.46,17.19,17.19,0,0,0-.76-5.46A5.68,5.68,0,0,0,572.88,103.29Z"/><path class="cls-2" d="M615,97.14h12.44a.61.61,0,0,1,.69.69v5.39a.61.61,0,0,1-.69.69h-1.8a.54.54,0,0,0-.55.41l-11,28.19q-2.28,5.88-4.67,8.12a9.12,9.12,0,0,1-6.53,2.25h-2.14a.61.61,0,0,1-.69-.69v-5.53a.61.61,0,0,1,.69-.69h1.24a4.74,4.74,0,0,0,3.08-.93,6.94,6.94,0,0,0,1.9-3l1-2.83-10.37-24.95a.48.48,0,0,0-.48-.34h-1.87a.61.61,0,0,1-.69-.69V97.83a.61.61,0,0,1,.69-.69H608.2a.62.62,0,0,1,.7.69v5.39a.62.62,0,0,1-.7.69H606c-.32,0-.44.16-.34.48l5.94,15.69h.14l5.87-15.69c.09-.32,0-.48-.34-.48H615a.61.61,0,0,1-.69-.69V97.83A.61.61,0,0,1,615,97.14Z"/><path class="cls-2" d="M289,83.46h37.17a.61.61,0,0,1,.7.69v11a.61.61,0,0,1-.7.69h-5.94a.61.61,0,0,1-.69-.69V91.06a.37.37,0,0,0-.41-.42h-7.05a.37.37,0,0,0-.42.42v32.2a.37.37,0,0,0,.42.41h3.59a.61.61,0,0,1,.69.69v5.39a.61.61,0,0,1-.69.69H299.49a.61.61,0,0,1-.69-.69v-5.39a.61.61,0,0,1,.69-.69h3.6a.37.37,0,0,0,.41-.41V91.06a.37.37,0,0,0-.41-.42h-7a.37.37,0,0,0-.42.42V95.2a.61.61,0,0,1-.69.69H289a.61.61,0,0,1-.69-.69v-11A.61.61,0,0,1,289,83.46Z"/><path class="cls-2" d="M341.08,96.38a15.13,15.13,0,0,1,8.71,2.45,12.61,12.61,0,0,1,5,6.74,34.08,34.08,0,0,1,1.11,10c0,.46-.25.69-.76.69H334.59c-.28,0-.42.13-.42.41a7.25,7.25,0,0,0,.49,2.56q1.72,5,7.46,5a10.06,10.06,0,0,0,7.81-3.18c.36-.37.71-.41,1-.13l4.08,3.59a.63.63,0,0,1,.07,1q-4.85,5.65-13.68,5.66a15.53,15.53,0,0,1-8.88-2.45,12.55,12.55,0,0,1-5-6.81,26.7,26.7,0,0,1-1.17-8.15,27,27,0,0,1,1.1-8.22,12.32,12.32,0,0,1,5-6.77A15.1,15.1,0,0,1,341.08,96.38Zm.07,6.56c-3.41,0-5.59,1.43-6.56,4.28a8.88,8.88,0,0,0-.42,2.84.37.37,0,0,0,.42.41h13.06a.37.37,0,0,0,.41-.41,9.18,9.18,0,0,0-.41-2.84,6,6,0,0,0-2.42-3.14A7.23,7.23,0,0,0,341.15,102.94Z"/><path class="cls-2" d="M375.8,96.38A22.72,22.72,0,0,1,387.27,99a1,1,0,0,1,.56.9v7.6a.62.62,0,0,1-.7.69h-5.87a.61.61,0,0,1-.69-.69v-3a.57.57,0,0,0-.35-.48,9.81,9.81,0,0,0-4.21-.69q-5.38,0-6.84,4.35a20.66,20.66,0,0,0-.69,6.15,21,21,0,0,0,.69,6.22q1.45,4.27,6.84,4.28a10.23,10.23,0,0,0,4.21-.62.48.48,0,0,0,.35-.48v-3.11a.61.61,0,0,1,.69-.69h5.87a.62.62,0,0,1,.7.69v7.67a.93.93,0,0,1-.56.89,24.4,24.4,0,0,1-11.47,2.56q-11.26,0-14.16-9a27.52,27.52,0,0,1-1-8.43,26.66,26.66,0,0,1,1-8.22,12.42,12.42,0,0,1,5.15-6.81A16.27,16.27,0,0,1,375.8,96.38Z"/><path class="cls-2" d="M393.22,83.46h10.43a.62.62,0,0,1,.7.69v16.1h.06q2.7-3.87,8.64-3.87a10.73,10.73,0,0,1,8.33,3.45,12.78,12.78,0,0,1,3.14,8.92v14.51a.37.37,0,0,0,.42.41h2.83a.61.61,0,0,1,.69.69v5.39a.61.61,0,0,1-.69.69H413.4a.61.61,0,0,1-.69-.69v-5.39a.61.61,0,0,1,.69-.69h3a.37.37,0,0,0,.41-.41V110.54a8.15,8.15,0,0,0-1.59-5.28,6.38,6.38,0,0,0-9.22,0,8,8,0,0,0-1.62,5.28v12.72a.36.36,0,0,0,.41.41h3a.61.61,0,0,1,.69.69v5.39a.61.61,0,0,1-.69.69H393.22a.61.61,0,0,1-.69-.69v-5.39a.61.61,0,0,1,.69-.69h3a.37.37,0,0,0,.42-.41V90.64a.37.37,0,0,0-.42-.41h-3a.61.61,0,0,1-.69-.69V84.15A.61.61,0,0,1,393.22,83.46Z"/><path class="cls-2" d="M460.12,23.12h15.61a.61.61,0,0,1,.7.69V29.2a.61.61,0,0,1-.7.69h-3.31a.37.37,0,0,0-.42.42V62.92a.37.37,0,0,0,.42.42h3.31a.61.61,0,0,1,.7.69v5.39a.61.61,0,0,1-.7.69H460.12a.61.61,0,0,1-.69-.69V64a.61.61,0,0,1,.69-.69h3.32a.37.37,0,0,0,.41-.42V30.31a.37.37,0,0,0-.41-.42h-3.32a.61.61,0,0,1-.69-.69V23.81A.61.61,0,0,1,460.12,23.12Z"/><path class="cls-2" d="M501.33,36a10.76,10.76,0,0,1,8.39,3.46,12.7,12.7,0,0,1,3.15,8.91V62.92a.37.37,0,0,0,.41.42h2.83a.62.62,0,0,1,.7.69v5.39a.62.62,0,0,1-.7.69H501.74a.61.61,0,0,1-.69-.69V64a.61.61,0,0,1,.69-.69h3a.37.37,0,0,0,.42-.42V50.21a8.18,8.18,0,0,0-1.59-5.29,6.38,6.38,0,0,0-9.22,0,8,8,0,0,0-1.63,5.29V62.92a.37.37,0,0,0,.42.42h3a.61.61,0,0,1,.69.69v5.39a.61.61,0,0,1-.69.69H481.57a.61.61,0,0,1-.69-.69V64a.61.61,0,0,1,.69-.69h3a.37.37,0,0,0,.41-.42V44a.37.37,0,0,0-.41-.42h-3a.61.61,0,0,1-.69-.69V37.49a.61.61,0,0,1,.69-.69H492a.61.61,0,0,1,.69.69v2.42h.07Q495.46,36,501.33,36Z"/><path class="cls-2" d="M534.12,36a28.1,28.1,0,0,1,11.68,2.35,1,1,0,0,1,.55,1v6.91a.61.61,0,0,1-.69.69h-5.6a.61.61,0,0,1-.69-.69V43.71a.53.53,0,0,0-.35-.55,13,13,0,0,0-5-.76q-5.59,0-5.6,3.38a2.86,2.86,0,0,0,1.21,2.46,10,10,0,0,0,4.39,1.21l3.66.41c3.73.42,6.43,1.46,8.09,3.15a9.38,9.38,0,0,1,2.48,6.87A9.68,9.68,0,0,1,544.59,68q-3.71,2.91-10.61,2.91a28.1,28.1,0,0,1-12.44-2.63.81.81,0,0,1-.48-.83V60a.61.61,0,0,1,.69-.69h5.87a.62.62,0,0,1,.7.69v3a.48.48,0,0,0,.34.48,16.32,16.32,0,0,0,5.8.9q6.22,0,6.22-3.87a3,3,0,0,0-1.24-2.62A9.93,9.93,0,0,0,535,56.63l-3.66-.41Q521,55.05,521,46.34a9.16,9.16,0,0,1,3.42-7.53Q527.83,36,534.12,36Z"/><path class="cls-2" d="M555.47,26.58h6.36a.61.61,0,0,1,.69.69v9.12a.37.37,0,0,0,.41.41h4.43a.61.61,0,0,1,.69.69v5.39a.61.61,0,0,1-.69.69h-4.43a.37.37,0,0,0-.41.42V60.23a3.26,3.26,0,0,0,.72,2.41,3.36,3.36,0,0,0,2.39.7h1.73a.61.61,0,0,1,.69.69v5.59a.61.61,0,0,1-.69.69H564q-4.9,0-7.08-2.38c-1.46-1.59-2.18-4-2.18-7.36V44a.37.37,0,0,0-.42-.42h-2.21a.61.61,0,0,1-.69-.69V37.49a.61.61,0,0,1,.69-.69h2.21a.37.37,0,0,0,.42-.41V27.27A.61.61,0,0,1,555.47,26.58Z"/><path class="cls-2" d="M573.3,36.8h10.44a.61.61,0,0,1,.69.69V62.92a.37.37,0,0,0,.41.42h3a.62.62,0,0,1,.7.69v5.39a.62.62,0,0,1-.7.69H573.3a.61.61,0,0,1-.69-.69V64a.61.61,0,0,1,.69-.69h3a.37.37,0,0,0,.41-.42V44a.37.37,0,0,0-.41-.42h-3a.61.61,0,0,1-.69-.69V37.49A.61.61,0,0,1,573.3,36.8Zm4.08-13.68h6.36a.61.61,0,0,1,.69.69v6a.61.61,0,0,1-.69.69h-6.36a.61.61,0,0,1-.69-.69v-6A.61.61,0,0,1,577.38,23.12Z"/><path class="cls-2" d="M594.66,26.58H601a.61.61,0,0,1,.69.69v9.12a.37.37,0,0,0,.41.41h4.43a.61.61,0,0,1,.69.69v5.39a.61.61,0,0,1-.69.69h-4.43a.37.37,0,0,0-.41.42V60.23a3.26,3.26,0,0,0,.72,2.41,3.36,3.36,0,0,0,2.39.7h1.73a.61.61,0,0,1,.69.69v5.59a.61.61,0,0,1-.69.69h-3.32q-4.9,0-7.08-2.38T594,60.57V44a.37.37,0,0,0-.41-.42h-2.22a.61.61,0,0,1-.69-.69V37.49a.61.61,0,0,1,.69-.69h2.22a.37.37,0,0,0,.41-.41V27.27A.61.61,0,0,1,594.66,26.58Z"/><path class="cls-2" d="M632,36.8h10.5a.61.61,0,0,1,.69.69V62.92a.37.37,0,0,0,.42.42h3a.61.61,0,0,1,.69.69v5.39a.61.61,0,0,1-.69.69H636.17a.61.61,0,0,1-.69-.69V67h-.07a10.28,10.28,0,0,1-8.57,3.87,10.58,10.58,0,0,1-8.33-3.46,12.89,12.89,0,0,1-3.07-8.91V44a.37.37,0,0,0-.42-.42h-3a.61.61,0,0,1-.69-.69V37.49a.61.61,0,0,1,.69-.69h10.44a.61.61,0,0,1,.69.69V56.7A8.28,8.28,0,0,0,624.73,62a6.26,6.26,0,0,0,9.12,0,8,8,0,0,0,1.63-5.22V44a.37.37,0,0,0-.42-.42h-3a.61.61,0,0,1-.69-.69V37.49A.61.61,0,0,1,632,36.8Z"/><path class="cls-2" d="M653.54,26.58h6.35a.61.61,0,0,1,.69.69v9.12a.37.37,0,0,0,.42.41h4.42a.61.61,0,0,1,.69.69v5.39a.61.61,0,0,1-.69.69H661a.37.37,0,0,0-.42.42V60.23a3.26,3.26,0,0,0,.73,2.41,3.34,3.34,0,0,0,2.38.7h1.73a.61.61,0,0,1,.69.69v5.59a.61.61,0,0,1-.69.69H662.1q-4.9,0-7.08-2.38t-2.17-7.36V44a.37.37,0,0,0-.42-.42h-2.21a.61.61,0,0,1-.69-.69V37.49a.61.61,0,0,1,.69-.69h2.21a.37.37,0,0,0,.42-.41V27.27A.61.61,0,0,1,653.54,26.58Z"/><path class="cls-2" d="M685,36a15.06,15.06,0,0,1,8.71,2.46,12.59,12.59,0,0,1,5,6.73,34.18,34.18,0,0,1,1.11,10c0,.46-.26.69-.76.69H678.49a.37.37,0,0,0-.42.42,7.15,7.15,0,0,0,.49,2.55Q680.29,64,686,64a10.06,10.06,0,0,0,7.81-3.18c.36-.37.71-.42,1-.14l4.08,3.59a.64.64,0,0,1,.07,1q-4.85,5.67-13.68,5.67a15.46,15.46,0,0,1-8.88-2.46,12.49,12.49,0,0,1-5-6.8,26.41,26.41,0,0,1-1.18-8.16,27.07,27.07,0,0,1,1.11-8.22,12.35,12.35,0,0,1,5-6.77A15.17,15.17,0,0,1,685,36Zm.07,6.57c-3.41,0-5.6,1.42-6.56,4.28a8.82,8.82,0,0,0-.42,2.83.37.37,0,0,0,.42.42h13.06a.37.37,0,0,0,.41-.42,9.11,9.11,0,0,0-.41-2.83,6,6,0,0,0-2.42-3.14A7.23,7.23,0,0,0,685.05,42.61Z"/><path class="cls-2" d="M238.46,22.36a26.28,26.28,0,0,1,8.19,1.28,18.45,18.45,0,0,1,6.25,3.28,1.25,1.25,0,0,1,.48,1v8.29a.61.61,0,0,1-.69.69h-6.22a.61.61,0,0,1-.69-.69V32.1a.64.64,0,0,0-.28-.55,12.94,12.94,0,0,0-7.25-1.86q-7.6,0-9.74,6.28-1.11,3.47-1.11,10.78c0,5.21.3,8.75.9,10.64a8.84,8.84,0,0,0,3.28,4.6,11.08,11.08,0,0,0,6.32,1.55q5.11,0,7.67-1.66a1.25,1.25,0,0,0,.7-1.1V51.59a.37.37,0,0,0-.42-.42h-7.46a.61.61,0,0,1-.69-.69V45a.61.61,0,0,1,.69-.69h15.06a.61.61,0,0,1,.69.69V64.79a1.91,1.91,0,0,1-.9,1.65q-6.15,4.43-15.47,4.43-13.89,0-17.49-11-1.17-3.52-1.17-13.13,0-9,1.31-13Q224.08,22.36,238.46,22.36Z"/><path class="cls-2" d="M275,36a15.06,15.06,0,0,1,8.71,2.46,12.59,12.59,0,0,1,5,6.73,34.18,34.18,0,0,1,1.11,10c0,.46-.26.69-.76.69H268.46a.37.37,0,0,0-.41.42,7.36,7.36,0,0,0,.48,2.55Q270.26,64,276,64a10,10,0,0,0,7.8-3.18c.37-.37.72-.42,1-.14l4.08,3.59a.64.64,0,0,1,.07,1q-4.85,5.67-13.68,5.67a15.42,15.42,0,0,1-8.88-2.46,12.49,12.49,0,0,1-5-6.8,26.41,26.41,0,0,1-1.18-8.16,27.07,27.07,0,0,1,1.11-8.22,12.35,12.35,0,0,1,5-6.77A15.13,15.13,0,0,1,275,36Zm.07,6.57c-3.41,0-5.6,1.42-6.57,4.28a9.11,9.11,0,0,0-.41,2.83.37.37,0,0,0,.41.42h13.06a.37.37,0,0,0,.42-.42,8.82,8.82,0,0,0-.42-2.83,6,6,0,0,0-2.41-3.14A7.28,7.28,0,0,0,275,42.61Z"/><path class="cls-2" d="M309.34,36A15.29,15.29,0,0,1,318,38.46a12.45,12.45,0,0,1,5,6.77,26.94,26.94,0,0,1,1.1,8.22,27,27,0,0,1-1.1,8.23,12.45,12.45,0,0,1-5,6.77,16.88,16.88,0,0,1-17.42,0,12.38,12.38,0,0,1-5-6.77,26.64,26.64,0,0,1-1.11-8.23,26.62,26.62,0,0,1,1.11-8.22,12.38,12.38,0,0,1,5-6.77A15.44,15.44,0,0,1,309.34,36Zm0,6.91c-3.28,0-5.37,1.45-6.29,4.36a21.46,21.46,0,0,0-.69,6.14,21,21,0,0,0,.69,6.15,6.66,6.66,0,0,0,12.5,0,21,21,0,0,0,.69-6.15,21.46,21.46,0,0,0-.69-6.14Q314.17,42.94,309.34,43Z"/><path class="cls-2" d="M348.07,36.32a15.26,15.26,0,0,1,3.25.34c.46.1.69.33.69.7v6c0,.6-.28.83-.83.69a27.05,27.05,0,0,0-4.08-.56q-7.46,0-7.46,8.57V62.92a.37.37,0,0,0,.42.42h3.24A.61.61,0,0,1,344,64v5.39a.61.61,0,0,1-.69.69H328.52a.61.61,0,0,1-.69-.69V64a.61.61,0,0,1,.69-.69h3a.37.37,0,0,0,.41-.42V44a.37.37,0,0,0-.41-.42h-3a.61.61,0,0,1-.69-.69V37.49a.61.61,0,0,1,.69-.69H339a.61.61,0,0,1,.69.69V41h.07A9.18,9.18,0,0,1,348.07,36.32Z"/><path class="cls-2" d="M367.84,36Q374,36,376.48,40h.06V37.49a.61.61,0,0,1,.69-.69h10.44a.61.61,0,0,1,.69.69v5.39a.61.61,0,0,1-.69.69h-3a.37.37,0,0,0-.42.42V68q0,7.26-4,11.27t-11.57,4A18.47,18.47,0,0,1,361.86,82a12.78,12.78,0,0,1-5.22-3.63.65.65,0,0,1,.07-1l4.08-4.07a.63.63,0,0,1,1,0,10.24,10.24,0,0,0,7.25,3.1q7.47,0,7.46-7.94V65.34h-.06q-2.49,3.87-8.64,3.87a12,12,0,0,1-7.12-2.07,11.67,11.67,0,0,1-4.21-6,27.57,27.57,0,0,1-1.11-8.49,27.34,27.34,0,0,1,1.11-8.43Q359.14,36,367.84,36Zm2,6.91A5.65,5.65,0,0,0,364,47.17a16.83,16.83,0,0,0-.76,5.46,16.07,16.07,0,0,0,.76,5.45,6.21,6.21,0,0,0,11.81,0,16.07,16.07,0,0,0,.76-5.45,16.83,16.83,0,0,0-.76-5.46A5.69,5.69,0,0,0,369.84,43Z"/><path class="cls-2" d="M393.17,36.8h10.44a.61.61,0,0,1,.69.69V62.92a.37.37,0,0,0,.41.42h3a.61.61,0,0,1,.69.69v5.39a.61.61,0,0,1-.69.69H393.17a.61.61,0,0,1-.69-.69V64a.61.61,0,0,1,.69-.69h3a.37.37,0,0,0,.42-.42V44a.37.37,0,0,0-.42-.42h-3a.61.61,0,0,1-.69-.69V37.49A.61.61,0,0,1,393.17,36.8Zm4.08-13.68h6.36a.61.61,0,0,1,.69.69v6a.61.61,0,0,1-.69.69h-6.36a.61.61,0,0,1-.69-.69v-6A.61.61,0,0,1,397.25,23.12Z"/><path class="cls-2" d="M426.31,36q7.53,0,10.68,2.7t3.14,8.91V62.92a.37.37,0,0,0,.42.42h3a.61.61,0,0,1,.69.69v5.39a.61.61,0,0,1-.69.69h-9.88a.61.61,0,0,1-.69-.69V67h-.07q-2.7,3.87-9.26,3.87a12,12,0,0,1-8-2.63q-3.15-2.62-3.15-7.6c0-3.55,1.17-6.21,3.49-8S421.57,50,425.76,50h6.63a.37.37,0,0,0,.42-.41V48.27a5.8,5.8,0,0,0-1.49-4.42q-1.49-1.38-5.35-1.38a16.36,16.36,0,0,0-3.6.41c-.23,0-.34.21-.34.49v3a.61.61,0,0,1-.69.69h-6a.61.61,0,0,1-.69-.69V39.29a.94.94,0,0,1,.55-.9A25.53,25.53,0,0,1,426.31,36Zm6.08,19.76H427q-7.11,0-7.11,4.56c0,2.81,1.88,4.22,5.66,4.22q7.26,0,7.26-5.67V56.22A.37.37,0,0,0,432.39,55.8Z"/><path class="cls-2" d="M236.55,96.9a15.13,15.13,0,0,1,8.58,2.39,12.22,12.22,0,0,1,5,6.7,26.33,26.33,0,0,1,1.1,8.13,26.33,26.33,0,0,1-1.1,8.13,12.26,12.26,0,0,1-5,6.7,16.7,16.7,0,0,1-17.22,0,12.27,12.27,0,0,1-5-6.7,26.35,26.35,0,0,1-1.09-8.13A26.35,26.35,0,0,1,223,106a12.24,12.24,0,0,1,5-6.7A15.24,15.24,0,0,1,236.55,96.9Zm0,6.83c-3.23,0-5.31,1.44-6.22,4.31a21.42,21.42,0,0,0-.68,6.08,21,21,0,0,0,.68,6.08,6.6,6.6,0,0,0,12.37,0,20.69,20.69,0,0,0,.68-6.08,21.06,21.06,0,0,0-.68-6.08Q241.33,103.74,236.55,103.73Z"/><path class="cls-2" d="M269.77,84.12h3a.6.6,0,0,1,.68.68v5.47a.6.6,0,0,1-.68.68h-2.12c-1.69,0-2.8.27-3.35.79s-.82,1.6-.82,3.24v2.26a.37.37,0,0,0,.41.41h5.88a.6.6,0,0,1,.68.68v5.33a.61.61,0,0,1-.68.69H266.9a.36.36,0,0,0-.41.41v18.72a.37.37,0,0,0,.41.41h3.62a.6.6,0,0,1,.68.68v5.33a.6.6,0,0,1-.68.69h-15a.61.61,0,0,1-.69-.69v-5.33a.61.61,0,0,1,.69-.68h2.94a.37.37,0,0,0,.41-.41V104.76a.36.36,0,0,0-.41-.41h-2.19a.6.6,0,0,1-.68-.69V98.33a.6.6,0,0,1,.68-.68h2.19a.37.37,0,0,0,.41-.41V95.12Q258.84,84.13,269.77,84.12Z"/><path class="cls-2" d="M624.85,124h0a3.39,3.39,0,1,0,3.33,3.38A3.36,3.36,0,0,0,624.84,124Zm0,6.25a2.86,2.86,0,0,1,0-5.72h0a2.86,2.86,0,0,1,0,5.72Z"/><path class="cls-2" d="M625.46,127.5v0a.94.94,0,0,0,.73-.92.9.9,0,0,0-.35-.78,2,2,0,0,0-1.17-.28,6.07,6.07,0,0,0-1.06.09v3.77h.6v-1.63h.42a.71.71,0,0,1,.81.67,3,3,0,0,0,.25,1h.64a2.84,2.84,0,0,1-.24-.93C626,127.86,625.79,127.56,625.46,127.5Zm-.82-.24h-.43V126a3.73,3.73,0,0,1,.43,0c.68,0,.92.33.92.66S625.14,127.26,624.64,127.26Z"/></svg>