<svg width="36" height="36" viewBox="0 0 36 36" fill="none"
    xmlns="http://www.w3.org/2000/svg">
    <path fill-rule="evenodd" clip-rule="evenodd" d="M36.4485 1.00024H1.60138L9.98139 14.5818H10.9326L19.0157 27.6344L27.0848 14.5818H28.0685L36.4485 1.00024ZM25.2374 4.7762C24.0635 5.7367 19.4234 8.22843 19.4234 8.22843L18.4907 8.96156C18.2077 9.77822 17.0569 10.0149 17.0569 10.0149C16.5182 10.367 16.1181 10.895 15.9248 11.509C15.7489 11.9928 15.4592 12.4273 15.0803 12.7757C14.7879 13.017 14.426 13.3604 14.426 13.3604C13.317 14.6735 15.0478 15.8753 15.0478 15.8753C13.5397 15.7175 13.2613 14.2606 13.2892 13.5274C13.4005 10.0798 16.3563 7.40713 16.3563 7.40713C19.4234 4.36323 25.0889 3.18465 25.0889 3.18465C25.4316 3.17458 25.7745 3.19165 26.1144 3.23569C26.1994 3.23087 26.2846 3.23087 26.3696 3.23569C26.4162 3.23602 26.462 3.24712 26.5036 3.26813C26.5451 3.28914 26.5812 3.31948 26.6091 3.35679C26.637 3.39409 26.6558 3.43734 26.6642 3.48314C26.6725 3.52895 26.6702 3.57607 26.6573 3.62081L26.5134 3.82498C26.4995 3.70433 26.3325 3.67649 26.2211 3.75073C26.1448 3.81321 26.0735 3.88147 26.0077 3.9549C25.372 4.72515 25.2374 4.7762 25.2374 4.7762ZM18.7552 7.86186L19.1821 7.68089L25.4277 3.94562C25.5761 3.94562 25.7014 3.85746 25.7014 3.76001C25.7052 3.73283 25.7016 3.70514 25.691 3.67984C25.6803 3.65453 25.6631 3.63254 25.6411 3.61617C25.5735 3.58871 25.5004 3.57759 25.4277 3.5837C25.2838 3.5837 25.1632 3.67649 25.1632 3.77393C25.1632 3.87138 25.2838 3.94562 25.4277 3.94562L18.7552 7.86186ZM22.833 7.20271L23.4501 7.38368C23.4501 7.38368 25.1298 6.26077 25.6588 5.12859C25.6588 5.12859 26.0161 4.4697 26.146 4.23769C26.2137 4.12878 26.2712 4.01384 26.3177 3.89433C26.115 4.07853 25.9344 4.28563 25.7795 4.51146C25.448 5.0287 25.0723 5.51619 24.6565 5.96845C24.0853 6.43152 23.4752 6.84447 22.833 7.20271ZM23.304 7.6108C23.0227 7.55836 22.7452 7.48705 22.4735 7.39735C22.4587 7.3888 22.4419 7.3843 22.4248 7.3843C22.4076 7.3843 22.3908 7.3888 22.376 7.39735C22.376 7.39735 21.8749 7.62008 21.4944 7.75L20.6824 8.01448C21.6627 8.52894 22.7537 8.79653 23.8609 8.79403C23.8609 8.79403 21.5408 8.98891 19.991 8.17225L19.5966 8.37641C19.5966 8.37641 20.7381 9.27195 24.0604 8.97963C24.0604 8.97963 26.5707 8.76154 27.7121 8.16761C27.8253 8.11577 27.9327 8.05199 28.0323 7.97736C28.0427 7.96804 28.051 7.95659 28.0566 7.94378C28.0622 7.93097 28.065 7.91711 28.0648 7.90313L28.0091 7.78248C27.9813 7.71752 27.9209 7.59688 27.9209 7.59688L27.8514 7.82888L27.7539 7.87529L27.5683 7.66648L27.4709 7.82888L27.4105 7.91705L23.304 7.6108ZM12.9528 13.5471C12.9528 13.5471 11.0968 11.2734 14.2753 7.18088C14.9759 6.25286 16.5953 4.78195 18.6555 5.28772C17.3257 5.96156 16.1354 6.88101 15.1476 7.99753C14.5687 8.68239 14.0676 9.42937 13.6535 10.2248C13.1295 11.2505 12.8877 12.3971 12.9528 13.5471ZM15.4402 15.6378C14.1966 14.798 14.5121 14.0648 14.5121 14.0648C14.7221 14.0383 14.9279 13.9853 15.1246 13.9071C15.4061 13.7778 15.8529 13.4584 16.2625 13.1655L16.2625 13.1655C16.5147 12.9851 16.7528 12.8149 16.9296 12.7053C17.1062 12.5921 17.3465 12.4318 17.6096 12.2564L17.6097 12.2563C18.1557 11.8922 18.7997 11.4627 19.1754 11.2529C21.4444 9.98618 22.8875 10.3574 22.8875 10.3574C24.609 10.8121 24.3677 11.3875 24.3677 11.3875C24.0104 10.7982 22.9432 11.0256 22.9432 11.0256C21.6347 11.2808 19.9132 12.7702 19.9132 12.7702C16.1686 15.9719 15.4402 15.6378 15.4402 15.6378ZM23.1347 11.3236C23.1347 11.3236 24.0628 11.1009 24.4015 11.8433C24.4015 11.8433 24.3412 12.9013 22.7403 14.0706C22.1585 14.497 21.261 15.0892 20.4313 15.6366L20.4313 15.6366L20.4312 15.6366C19.5275 16.2329 18.7043 16.7761 18.4575 16.9938L18.4334 17.015C18.1749 17.2422 17.0898 18.1954 17.7801 18.8498C17.6226 18.7771 17.483 18.671 17.3708 18.5387C17.2586 18.4065 17.1766 18.2514 17.1305 18.0842C16.9866 17.5692 16.9077 17.0309 17.859 15.9591C18.824 15.0381 19.8885 14.2273 21.0328 13.5416C21.6539 13.1839 22.2236 12.7438 22.7264 12.2331C22.8575 12.1211 22.9622 11.9815 23.0328 11.8242C23.1034 11.667 23.1382 11.496 23.1347 11.3236ZM18.422 18.9194C17.9998 18.8498 17.958 18.3579 17.958 18.3579C18.0833 18.4322 18.306 18.2837 18.3663 18.2419C18.6023 18.0864 18.9945 17.7814 19.363 17.4949C19.6102 17.3026 19.8468 17.1186 20.0182 16.9937C20.3742 16.7174 20.7512 16.4691 21.1457 16.2513C21.5456 16.0528 22.0035 16.005 22.4357 16.1168C22.5884 16.1654 22.7274 16.2497 22.8411 16.3627C22.9549 16.4756 23.0402 16.614 23.0899 16.7664C22.7698 16.4045 21.9206 16.6457 21.6283 16.8267C20.9698 17.2821 20.3616 17.8063 19.814 18.3904C19.6448 18.588 19.4287 18.74 19.1855 18.8324C18.9423 18.9248 18.6798 18.9547 18.422 18.9194ZM19.2739 20.372C19.4854 20.1807 19.8921 19.8324 20.2504 19.5255L20.2504 19.5255C20.5525 19.2667 20.8202 19.0375 20.9072 18.9568C21.0105 18.8582 21.1192 18.759 21.2297 18.6581C21.7847 18.1516 22.3873 17.6016 22.5962 16.8548C22.6699 16.8528 22.7428 16.8712 22.8067 16.9081C22.8706 16.945 22.923 16.9988 22.9581 17.0636C23.0636 17.2718 23.0868 17.512 23.0231 17.7365C22.9489 18.0845 22.8375 18.349 21.9373 19.2027C20.7471 20.3252 19.3958 21.2636 17.9283 21.9868L19.2739 20.372Z" fill="#1C355E"></path>
</svg>